<svg id="Layer_1" data-name="Layer 1" xmlns="http://www.w3.org/2000/svg" viewBox="0 0 692.84 190.68"><defs><style>.cls-1,.cls-3{fill:#c8dfaf;}.cls-2{fill:none;}.cls-3{font-size:29px;font-family:MyriadPro-Regular, Myriad Pro;letter-spacing:0.3em;}</style></defs><path class="cls-1" d="M284.43,447.68c-1.62,3.6-2.94,9.8,0,12.83,1.35,1.4,3.38,1.9,16.39.72,10.47-1,13.2-1.64,14.62,0s1.55,5.23-4.28,15a110.84,110.84,0,0,1-81.63.35A49.64,49.64,0,0,1,236,454.46c4.37-7.49,9.58-11.4,32.08-26.38,21.16-14.09,30.17-19.7,32.08-29.94.27-1.47,1.24-6.67-1.43-8.91-3.7-3.12-10.43,2.82-20.67,3.92-12.21,1.31-26-4.63-26.38-10-.55-7.74,26.83-15,29.59-15.68,16-4.22,27.25-2.79,33.5-1.43,7.41,1.6,14.17,3.17,17.47,8.91,3.67,6.38.89,14.12-1.07,19.6-2.94,8.2-7.58,13.42-16.75,23.53s-14,15.39-18.89,18.89C290.93,440.22,286.8,442.39,284.43,447.68Z" transform="translate(-229.53 -364.68)"/><path class="cls-1" d="M362.37,484.4c-3.15,3.1-7.21,3.18-14,3.32-5.83.12-8.74.19-10-1.66-2.23-3.31,2.19-10.7,7.36-14.5a14.62,14.62,0,0,1,9.51-3.32c.43,0,8.32.54,10.22,6.18C366.75,478.28,364.49,482.3,362.37,484.4Z" transform="translate(-229.53 -364.68)"/><path class="cls-1" d="M493.53,432.83c-1.14,8.64-4.56,14.62-11.16,25.9a206.35,206.35,0,0,1-11.88,18.06l-28.28-.47a107.08,107.08,0,0,0,17.34-25.9c2.88-6.1,7.12-15.12,4-18.06-2.61-2.51-9.38.48-12.59,1.9A42.47,42.47,0,0,0,436.5,445c-11.81,13.27-21.86,29.25-25.9,35.88l-31.12.48c6.48-17.5,10.95-30.46,14-39.69.58-1.75,5.45-16.41,15.44-24.71,2.84-2.36,5.64-3.83,8.56-3.33a9.85,9.85,0,0,1,6.89,5.71c1.33,3.16,0,5.3,1.9,7.36a5.17,5.17,0,0,0,4,1.67c3.13-.3,5-4.49,5.94-6.18,4-7.36,13.4-10.08,22.1-12.6,6-1.73,23.65-6.85,31.84,2.14C495.56,417.56,494.35,426.69,493.53,432.83Z" transform="translate(-229.53 -364.68)"/><path class="cls-1" d="M561.73,410.26a154.41,154.41,0,0,0-25.42,45.38,152.73,152.73,0,0,0-7.13,28.76H506.37a128.82,128.82,0,0,1,26.37-73.9Z" transform="translate(-229.53 -364.68)"/><path class="cls-1" d="M569.34,385.07c-1.81,5-10.65,5-12.84,5-4.8,0-13.19-1.45-14-5.7-.68-3.48,4.08-6.94,5-7.61,5.11-3.72,13.8-5.15,18.77-.47C568.33,378.24,570.47,382,569.34,385.07Z" transform="translate(-229.53 -364.68)"/><path class="cls-1" d="M645.85,416.2c-.79,1.47-3.58,1-6.41,1.19-6.3.35-10.58,3.6-18.06,9.26-7.81,5.91-20.08,15.2-26.62,32.56a65.1,65.1,0,0,0-4,25.66H569.81a97.49,97.49,0,0,1,.48-18.53c1.33-10.95,3.34-11.79,11.64-36.6,3.35-10,6.51-20.31,12.83-23.05,1.07-.46,4.12-1.78,6.42-.47.82.46,1.21,1.07,3.32,4.51,2.71,4.41,2.69,4.43,2.86,4.52,3.63,1.9,9.37-10.36,20-11.65,6.11-.74,10.95,2.54,12.12,3.33C643.15,409.45,647,414.07,645.85,416.2Z" transform="translate(-229.53 -364.68)"/><path class="cls-1" d="M699.79,410.26a118.39,118.39,0,0,0-32.08,74.14l-22.33-.24a160.09,160.09,0,0,1,25.18-74.38Z" transform="translate(-229.53 -364.68)"/><path class="cls-1" d="M704.78,389.35c-4.68,3.79-11.28,2.55-15.21.23-1.5-.89-4.56-2.69-5-5.7-.66-4.71,5.46-10.14,11.65-10.69,5-.45,11.55,2.1,12.59,7.13C709.82,385.14,705,389.13,704.78,389.35Z" transform="translate(-229.53 -364.68)"/><path class="cls-1" d="M813.14,447.8a129.84,129.84,0,0,1-19.49,28.52l-23.76.23a60.5,60.5,0,0,1,6.18-13.3c2.9-4.65,4.52-5.81,7.6-11.17,3.62-6.28,5.87-10.33,4.28-14s-5.7-4.64-6.18-4.75c-5.44-1.34-10.2,2.83-12.12,4.51-4,3.5-5.37,7.18-7.13,10.69-4.4,8.85-9.92,14.3-17.34,21.63a101.05,101.05,0,0,1-18.3,14.26H701.69c2.6-4.91,5.59-10.73,8.8-17.35,10.07-20.77,15.1-31.15,16.39-35.64,2-7.08,3-13.23,8.56-17.59.93-.73,6.22-4.87,10.21-2.85,2.44,1.23,4,4.56,3.81,7.37s-2.15,4.08-1.43,5.94,3.62,2.49,4.28,2.61c4,.76,7.57-1.7,9.5-3.09,3.85-2.76,4.49-4.92,6.89-7.36,4.1-4.16,9.22-5,16.87-6.18,10.07-1.59,17.12-2.71,23.77,1.66,7.14,4.7,9,12.59,9.26,13.78C819.49,429.72,819.47,435.14,813.14,447.8Z" transform="translate(-229.53 -364.68)"/><path class="cls-1" d="M917.63,417.56c-1.16-.76-2.9-.43-5.16,0-3.47.67-4.17,1.72-5.89,1.79-3.34.12-5.11-3.73-7.84-6.24-6.7-6.16-18.55-3.61-23.7-2.5-8.22,1.77-13.6,5.7-20,10.34a52.57,52.57,0,0,0-11.76,10.87,49.75,49.75,0,0,0-8.2,16.22c-1.85,6.28-3.14,10.64-1.78,16,2.38,9.49,10.89,14.18,12.65,15.15,6.94,3.82,13.54,3.44,17.64,3.21,6-.35,10.9-.63,15-4.1,3.44-2.94,4.7-6.79,8.74-7.31a4.52,4.52,0,0,1,3.74.89c1.7,1.67.75,4.69.71,4.81h22.46c1.27-26.76,2.69-42.24,4.27-49.9C918.82,425.38,920.16,419.24,917.63,417.56Zm-30.29,26c-.22,2.74-.41,5.23-2,7.67a13.52,13.52,0,0,1-6.6,5c-2,.89-12.37,5.39-17.82,0-2.54-2.52-3.84-7-2.32-10.16.55-1.12,1.3-1.77,9.63-5.53,7.29-3.28,8.84-3.75,10.33-4.09a34.44,34.44,0,0,1,8.2-.9A28,28,0,0,1,887.34,443.58Z" transform="translate(-229.53 -364.68)"/><path class="cls-2" d="M887.34,443.58c-.22,2.74-.41,5.23-2,7.67a13.52,13.52,0,0,1-6.6,5c-2,.89-12.37,5.39-17.82,0-2.54-2.52-3.84-7-2.32-10.16.55-1.12,1.3-1.77,9.63-5.53,7.29-3.28,8.84-3.75,10.33-4.09a34.44,34.44,0,0,1,8.2-.9A28,28,0,0,1,887.34,443.58Z" transform="translate(-229.53 -364.68)"/><path class="cls-2" d="M887.34,443.58c-.22,2.74-.41,5.23-2,7.67a13.52,13.52,0,0,1-6.6,5c-2,.89-12.37,5.39-17.82,0-2.54-2.52-3.84-7-2.32-10.16.55-1.12,1.3-1.77,9.63-5.53,7.29-3.28,8.84-3.75,10.33-4.09a34.44,34.44,0,0,1,8.2-.9A28,28,0,0,1,887.34,443.58Z" transform="translate(-229.53 -364.68)"/><text class="cls-3" transform="translate(16.04 183.43)">laisse le travail resulte les faits </text></svg>